<svg xmlns="http://www.w3.org/2000/svg" viewBox="0 0 200 200">
  <!-- Coroa -->
  <polygon points="100,20 90,40 85,35 80,50 100,45 120,50 115,35 110,40" fill="transparent" stroke="#000" stroke-width="2"/>
  <!-- Cabeça -->
  <circle cx="100" cy="70" r="30" fill="transparent" stroke="#000" stroke-width="2"/>
  <!-- Cabelo -->
  <path d="M 70 70 Q 60 50 70 40 Q 80 30 90 35 Q 85 25 100 30 Q 115 25 110 35 Q 120 30 130 40 Q 140 50 130 70" fill="transparent" stroke="#000" stroke-width="2"/>
  <!-- Olhos -->
  <circle cx="92" cy="65" r="3" fill="transparent" stroke="#000" stroke-width="2"/>
  <circle cx="108" cy="65" r="3" fill="transparent" stroke="#000" stroke-width="2"/>
  <!-- Boca -->
  <path d="M 95 78 Q 100 82 105 78" fill="transparent" stroke="#000" stroke-width="2"/>
  <!-- Corpo/Vestido -->
  <polygon points="100,100 60,180 140,180" fill="transparent" stroke="#000" stroke-width="2"/>
  <!-- Braços -->
  <line x1="70" y1="110" x2="50" y2="130" stroke="#000" stroke-width="2"/>
  <line x1="130" y1="110" x2="150" y2="130" stroke="#000" stroke-width="2"/>
</svg>

