<?xml version="1.0" standalone="no"?>
<!DOCTYPE svg PUBLIC "-//W3C//DTD SVG 20010904//EN"
 "http://www.w3.org/TR/2001/REC-SVG-20010904/DTD/svg10.dtd">
<svg version="1.0" xmlns="http://www.w3.org/2000/svg"
 width="1536.000000pt" height="1024.000000pt" viewBox="0 0 1536.000000 1024.000000"
 preserveAspectRatio="xMidYMid meet">

<g transform="translate(0.000000,1024.000000) scale(0.100000,-0.100000)"
fill="#000000" stroke="none">
<path d="M8779 9511 c-16 -12 -36 -59 -64 -147 l-42 -129 -69 -18 c-165 -43
-204 -57 -220 -82 -28 -43 -12 -68 94 -141 53 -37 99 -69 101 -71 2 -1 -1 -60
-8 -129 -10 -111 -9 -130 4 -151 30 -45 77 -32 221 64 l82 54 126 -45 c137
-50 160 -54 194 -30 31 21 28 55 -14 185 l-35 110 90 95 c72 75 91 101 91 124
0 42 -24 51 -172 61 -72 4 -131 9 -132 11 -2 2 -33 51 -70 111 -92 145 -126
170 -177 128z m129 -189 c35 -53 71 -103 80 -109 9 -7 37 -13 62 -13 26 0 82
-3 124 -6 l77 -7 -86 -87 c-56 -58 -85 -95 -85 -110 0 -13 16 -72 35 -133 20
-60 34 -111 32 -114 -3 -2 -55 15 -117 37 -170 63 -159 64 -283 -21 -59 -40
-108 -71 -110 -68 -2 2 2 60 10 128 16 146 22 133 -104 218 -46 31 -79 61 -75
65 5 5 62 22 128 39 65 16 124 35 131 42 7 7 26 57 42 113 17 55 35 114 42
130 10 27 12 27 23 11 6 -10 39 -62 74 -115z"/>
<path d="M6764 9506 c-46 -20 -103 -74 -141 -134 -29 -45 -36 -51 -53 -42 -10
6 -22 15 -26 21 -12 20 -128 69 -162 69 -46 0 -98 -26 -124 -62 -87 -123 44
-313 310 -447 115 -58 106 -58 173 6 140 134 239 315 239 437 -1 57 -32 122
-72 146 -38 23 -99 26 -144 6z m121 -72 c21 -23 25 -37 25 -88 -1 -103 -60
-217 -181 -349 l-60 -67 -62 32 c-195 98 -307 209 -307 305 0 111 118 113 245
3 25 -22 53 -40 60 -40 8 0 26 24 41 53 36 71 69 113 117 148 51 37 90 38 122
3z"/>
<path d="M2120 9407 c-97 -19 -192 -67 -255 -132 -69 -71 -125 -181 -132 -262
l-6 -60 -31 16 c-23 12 -59 16 -136 16 -101 0 -108 -1 -168 -34 -78 -42 -145
-115 -186 -201 -27 -56 -31 -76 -31 -145 0 -67 5 -88 27 -130 33 -63 98 -126
164 -159 108 -54 130 -56 764 -55 322 0 628 4 680 8 176 16 283 78 342 198 31
63 33 74 33 169 0 96 -2 105 -35 170 -63 123 -167 180 -314 172 -44 -3 -88 -8
-96 -12 -12 -5 -18 7 -28 61 -17 91 -53 162 -118 232 -111 121 -302 180 -474
148z m242 -77 c113 -35 201 -108 254 -212 22 -42 29 -72 33 -148 7 -109 4
-107 101 -71 66 24 129 26 196 6 67 -20 117 -64 151 -133 23 -48 28 -70 28
-138 0 -70 -4 -88 -30 -139 -19 -37 -46 -72 -73 -92 -86 -65 -84 -65 -752 -76
-648 -10 -737 -7 -845 34 -41 15 -75 38 -112 74 -97 97 -104 208 -23 334 83
128 235 190 359 146 23 -8 62 -29 87 -47 39 -28 46 -30 59 -17 12 12 13 22 4
54 -33 118 49 296 170 375 110 70 264 90 393 50z"/>
<path d="M13027 9309 c-121 -19 -220 -125 -242 -260 l-5 -36 -63 -6 c-177 -17
-287 -121 -287 -272 0 -123 77 -219 215 -271 46 -17 92 -19 565 -22 533 -3
589 0 676 38 55 23 120 84 147 134 30 57 30 165 0 221 -47 88 -122 134 -222
138 l-59 2 -7 55 c-9 73 -48 153 -92 189 -76 63 -214 68 -304 12 l-50 -31 -30
34 c-54 62 -145 90 -242 75z m162 -92 c22 -15 50 -45 61 -67 23 -45 47 -51 76
-19 31 34 97 68 146 75 126 17 215 -86 206 -239 l-3 -62 86 4 c71 2 93 0 125
-17 73 -37 104 -88 104 -168 0 -62 -20 -104 -71 -147 -81 -70 -86 -71 -634
-75 -344 -3 -510 0 -557 8 -141 24 -232 115 -233 230 0 77 37 133 115 173 50
26 63 28 145 25 l90 -3 6 75 c10 117 48 177 139 220 63 29 143 24 199 -13z"/>
<path d="M5055 9074 c-249 -36 -393 -77 -570 -165 -365 -180 -659 -512 -913
-1031 -57 -117 -143 -318 -176 -412 -5 -16 -18 -7 -80 60 -81 87 -139 124
-232 148 -84 22 -135 20 -246 -8 -117 -30 -189 -60 -219 -92 l-24 -25 24 -66
c12 -37 37 -89 55 -117 49 -76 156 -171 243 -214 l75 -38 -51 -33 c-73 -47
-163 -149 -210 -240 -40 -77 -91 -232 -91 -277 0 -48 94 -75 258 -76 165 0
262 35 366 133 l62 58 18 -47 c22 -61 77 -136 125 -170 38 -27 39 -28 45 -112
4 -47 11 -102 15 -121 l8 -36 -61 -11 c-133 -25 -289 -131 -399 -272 -75 -97
-143 -235 -163 -330 -21 -100 -14 -308 15 -444 37 -171 25 -245 -55 -343 -20
-24 -34 -51 -32 -60 8 -45 135 -57 236 -24 31 10 86 21 122 24 77 5 172 46
265 111 114 82 204 199 285 370 64 133 80 197 87 336 l6 116 71 -14 c62 -13
77 -20 122 -62 28 -27 76 -64 106 -83 58 -38 168 -87 192 -87 9 0 46 -22 83
-49 38 -27 101 -67 142 -89 66 -36 71 -41 50 -47 -48 -15 -160 -98 -220 -163
-78 -86 -151 -232 -175 -351 -20 -104 -15 -344 10 -434 28 -102 60 -171 82
-181 18 -8 21 -16 16 -50 -2 -23 -6 -42 -7 -44 -12 -15 -1186 193 -1425 253
-30 7 -71 16 -90 18 -19 3 -62 18 -95 33 -54 26 -71 29 -160 29 -93 0 -104 -2
-155 -31 -128 -73 -131 -172 -14 -554 203 -661 489 -1220 820 -1607 l36 -42
-37 -43 c-20 -24 -49 -69 -64 -101 l-28 -58 -79 -3 c-55 -2 -117 -15 -204 -41
-109 -33 -141 -38 -255 -42 -148 -5 -202 6 -441 91 -163 58 -257 76 -389 76
-137 0 -241 -20 -420 -80 -181 -61 -280 -81 -401 -81 -104 0 -177 15 -349 71
-185 60 -269 74 -404 67 -149 -7 -161 -11 -161 -49 0 -28 2 -30 27 -24 16 3
73 9 128 12 124 8 190 -2 379 -61 218 -68 268 -78 391 -77 127 0 221 19 420
87 304 102 495 100 791 -9 190 -71 270 -88 398 -88 118 0 211 16 341 57 99 32
145 39 188 31 31 -6 35 -10 40 -46 12 -95 53 -146 265 -335 190 -169 246 -201
373 -212 83 -7 154 13 239 68 65 42 181 152 261 248 l45 53 60 -30 c265 -133
514 -202 734 -202 124 0 169 7 390 63 157 40 172 42 315 42 175 0 198 -5 444
-100 267 -102 304 -110 521 -110 206 0 255 9 525 95 233 74 317 92 471 97 174
7 236 -5 481 -88 371 -126 465 -145 657 -136 149 7 248 31 542 131 296 101
360 116 525 123 160 7 277 -9 464 -64 337 -99 400 -114 500 -120 133 -7 250
14 435 78 388 135 427 137 739 32 198 -66 324 -84 338 -47 10 27 -17 41 -85
47 -42 3 -130 25 -239 60 -175 57 -301 82 -373 75 -22 -2 -40 -1 -39 2 0 3 30
28 66 55 36 28 93 81 127 119 70 79 123 107 256 137 163 36 284 24 525 -51
329 -103 426 -102 754 9 363 123 432 122 854 -19 242 -81 357 -84 585 -13 64
20 153 47 197 61 57 17 113 26 193 29 l112 6 0 28 0 29 -97 0 c-116 0 -188
-15 -344 -68 -178 -61 -254 -75 -373 -69 -91 4 -122 11 -316 75 -255 84 -319
96 -454 90 -115 -6 -214 -29 -370 -88 -178 -67 -261 -83 -396 -77 -118 5 -143
11 -395 87 -121 36 -157 43 -260 47 -110 5 -250 -10 -310 -33 -8 -3 18 43 59
102 301 446 481 858 630 1445 30 118 62 261 72 319 15 92 16 109 3 135 -19 41
-71 65 -142 65 -52 0 -557 -46 -776 -70 -47 -5 -86 -8 -88 -6 -2 2 3 29 12 62
23 88 19 240 -9 349 -13 50 -23 90 -22 90 0 1 18 14 40 29 36 27 38 31 33 71
-17 118 -173 418 -291 558 -57 69 -149 139 -251 193 -47 26 -85 47 -83 49 2 1
45 21 97 44 63 28 108 41 138 41 62 0 188 28 256 56 123 52 269 159 333 244
88 117 114 140 155 140 47 0 47 10 14 -188 -55 -336 -21 -516 125 -662 123
-122 303 -173 449 -128 19 6 80 11 135 13 112 2 175 20 259 76 54 35 68 66 41
86 -10 7 -26 13 -36 13 -40 0 -80 31 -101 78 -28 65 -26 161 7 282 59 211 69
323 41 453 -38 182 -204 354 -389 403 -28 8 -102 14 -166 14 l-115 1 -46 43
-47 42 10 50 10 49 126 60 c227 108 397 239 488 376 83 126 102 212 65 295
-27 60 -90 107 -256 191 -235 119 -293 185 -434 492 -99 213 -157 321 -233
432 -394 578 -1067 844 -1748 693 -146 -33 -243 -68 -375 -138 -189 -98 -307
-187 -587 -445 -120 -110 -291 -230 -398 -280 -77 -36 -150 -55 -285 -75 -115
-17 -147 -27 -194 -63 -159 -121 -38 -494 248 -766 45 -43 116 -100 159 -128
84 -55 90 -67 91 -170 1 -26 8 -86 16 -134 9 -48 14 -89 12 -91 -1 -2 -36 2
-77 7 -63 9 -80 16 -112 44 -72 66 -112 78 -328 100 -115 12 -169 22 -210 40
-73 31 -261 58 -370 53 -111 -6 -180 -38 -257 -122 -210 -227 -216 -627 -12
-850 55 -61 149 -114 216 -123 62 -8 339 15 380 32 29 12 193 23 193 12 0 -1
-7 -34 -15 -72 -43 -202 8 -485 116 -651 85 -130 261 -261 511 -379 93 -44
268 -104 366 -126 32 -8 52 -18 52 -26 0 -8 -12 -60 -26 -116 -33 -129 -89
-466 -104 -622 -7 -66 -13 -122 -16 -124 -9 -10 -1924 -3 -2234 8 -418 15
-828 36 -835 42 -7 8 -58 349 -52 355 3 3 24 -7 47 -21 85 -54 167 -78 265
-79 109 -1 155 12 237 67 122 82 223 257 235 411 4 51 13 81 30 107 58 88 82
245 53 335 l-12 35 135 138 c145 147 157 167 144 248 -13 75 -105 153 -184
153 -82 0 -116 -25 -265 -197 -69 -81 -84 -93 -111 -93 -50 0 -106 -19 -120
-41 -6 -10 -22 -19 -35 -19 -54 0 -112 -60 -112 -114 0 -16 -7 -29 -17 -33
-10 -3 -28 -15 -39 -25 -21 -19 -22 -19 -87 21 -36 22 -115 66 -174 97 -59 31
-109 57 -110 58 -2 2 27 15 65 30 283 116 499 359 553 623 12 59 14 62 48 68
54 10 101 38 154 91 128 130 175 358 101 493 -33 61 -91 115 -142 132 -33 11
-34 12 -28 53 3 22 9 102 13 178 l6 136 47 36 c75 58 222 215 279 300 65 96
124 218 146 306 25 95 17 206 -18 258 -31 48 -104 87 -192 103 -56 11 -214 7
-290 -7 -29 -5 -33 -2 -99 103 -109 171 -202 289 -321 409 -267 269 -563 427
-930 495 -106 20 -422 34 -500 23z m410 -75 c239 -30 498 -127 700 -262 219
-147 420 -366 605 -660 41 -64 79 -117 84 -117 6 0 34 7 61 16 72 23 254 23
320 0 115 -41 147 -121 109 -270 -39 -156 -161 -342 -329 -506 -92 -89 -96
-90 -108 -23 -5 26 -2 35 14 43 102 55 -221 197 -591 260 -352 59 -759 47
-1170 -36 -428 -86 -860 -250 -1251 -474 -136 -78 -368 -233 -416 -280 -28
-26 -29 -61 -3 -85 20 -18 29 -85 11 -85 -5 0 -22 15 -37 33 -76 90 -121 270
-110 437 21 298 186 734 431 1142 139 232 354 475 532 601 323 229 713 319
1148 266z m5636 -48 c131 -28 234 -63 359 -123 239 -113 434 -273 593 -485 96
-130 166 -254 267 -474 92 -200 125 -257 195 -340 69 -82 132 -126 291 -204
254 -124 285 -194 166 -376 -86 -131 -241 -253 -464 -365 -59 -30 -110 -54
-113 -54 -13 0 -3 50 11 58 32 18 11 55 -61 110 -106 80 -340 234 -499 329
-575 343 -1223 533 -1820 533 -368 0 -704 -64 -875 -168 -82 -49 -111 -95 -93
-144 13 -38 16 -118 4 -118 -22 0 -128 85 -213 169 -176 177 -280 371 -280
529 -1 117 44 153 219 177 59 8 138 25 177 36 172 52 363 178 602 397 224 206
340 291 521 382 154 77 338 130 532 154 91 11 387 -3 481 -23z m-7984 -1352
c49 -17 73 -37 151 -116 50 -52 92 -102 92 -111 0 -9 -7 -41 -16 -73 l-16 -56
-101 64 c-111 69 -142 82 -160 64 -19 -19 3 -41 117 -112 118 -74 119 -70 -6
-90 -60 -10 -88 -10 -129 -1 -140 33 -284 146 -347 273 -17 37 -32 73 -32 82
0 19 89 62 167 81 90 22 212 20 280 -5z m7247 -124 c65 -7 120 -15 121 -17 2
-2 -28 -28 -66 -58 -194 -154 -481 -254 -884 -310 -82 -11 -188 -21 -235 -23
-83 -2 -85 -2 -85 -27 0 -21 5 -26 33 -28 39 -4 39 -5 17 -177 -8 -66 -15
-123 -15 -127 0 -5 -18 -8 -39 -8 l-39 0 -18 73 c-22 93 -31 364 -15 467 14
89 21 96 134 140 101 40 254 76 392 94 148 19 545 20 699 1z m-4339 -47 c-12
-39 -75 -150 -118 -208 -149 -200 -354 -323 -562 -337 l-80 -6 87 91 c156 162
240 322 169 322 -14 0 -27 -15 -44 -52 -56 -122 -218 -291 -371 -387 -151 -94
-333 -161 -440 -161 l-48 0 63 42 c80 53 209 181 209 206 0 11 -6 25 -14 31
-11 9 -26 -1 -72 -50 -75 -78 -171 -151 -248 -189 -60 -29 -211 -69 -221 -58
-3 3 8 40 25 82 36 92 93 278 110 359 14 68 0 60 225 137 373 127 777 196
1163 199 l173 1 -6 -22z m250 -7 c192 -29 491 -113 541 -153 14 -11 34 -107
44 -220 7 -76 -2 -323 -12 -333 -2 -2 -22 -7 -43 -10 l-40 -7 -14 79 c-7 43
-15 91 -18 106 -3 15 -1 27 3 26 23 -4 34 3 34 21 0 11 -6 22 -12 24 -220 61
-331 120 -455 239 -74 71 -160 182 -179 230 -8 21 -8 21 151 -2z m4520 -26
c76 -19 144 -40 149 -45 6 -6 -9 -27 -45 -60 -163 -152 -414 -256 -705 -292
-105 -13 -109 -15 -109 -38 0 -22 5 -25 43 -28 65 -5 273 34 387 72 171 58
305 132 408 226 32 29 59 51 61 49 1 -2 11 -24 20 -49 55 -143 208 -363 336
-484 72 -68 190 -151 247 -175 29 -12 32 -18 42 -87 16 -108 91 -264 126 -264
8 0 30 24 48 53 64 97 126 137 214 137 127 0 226 -120 227 -275 1 -97 -40
-182 -138 -280 -80 -81 -131 -105 -227 -105 -77 0 -109 15 -109 50 0 28 -23
56 -38 46 -5 -3 -25 -38 -45 -78 -93 -188 -254 -316 -510 -407 -334 -118 -833
-120 -1217 -5 -213 64 -427 187 -550 316 -85 89 -146 229 -152 347 -3 54 -2
55 27 61 17 4 39 11 50 17 11 6 99 14 195 18 110 4 187 12 208 21 18 7 67 16
110 19 104 9 136 20 171 60 38 44 55 104 48 176 -10 112 -55 153 -186 169 -58
8 -92 18 -117 35 -50 34 -86 42 -244 54 -74 6 -152 17 -173 23 -37 11 -39 13
-33 47 3 20 10 79 16 131 20 175 9 156 98 163 175 14 485 78 646 134 177 61
345 157 441 253 38 37 43 39 90 35 28 -3 113 -21 190 -40z m-4543 -241 c96
-93 218 -171 325 -210 84 -31 85 -32 107 -144 39 -195 50 -324 50 -580 0 -231
-2 -262 -21 -332 -110 -392 -454 -616 -1058 -689 -133 -17 -497 -17 -610 -1
-278 40 -498 133 -656 280 -80 74 -126 137 -183 250 -25 51 -50 92 -55 92 -19
0 -39 -30 -34 -49 8 -32 -67 -65 -147 -65 -248 1 -412 285 -295 513 70 139
201 169 345 80 l45 -28 43 42 c47 46 125 161 168 249 l27 55 41 -4 c24 -3 70
2 107 13 69 19 90 20 159 7 129 -24 343 45 543 173 37 24 70 44 73 44 3 0 13
-7 22 -16 13 -14 32 -16 111 -11 105 5 158 20 268 75 163 80 345 269 429 445
l17 36 48 -72 c26 -40 85 -109 131 -153z m5008 89 c299 -118 613 -292 927
-512 109 -77 133 -98 139 -124 12 -48 7 -157 -11 -234 -29 -131 -24 -122 -45
-76 -27 62 -93 128 -152 153 -43 18 -65 22 -124 18 -86 -6 -141 -34 -202 -103
-39 -45 -41 -46 -52 -25 -22 40 -50 133 -50 163 0 24 3 28 18 22 30 -13 195
-17 225 -6 21 8 28 17 25 33 -3 22 -7 23 -113 23 -121 0 -171 15 -293 86 -76
45 -272 243 -351 354 -59 84 -139 229 -156 284 -7 22 -5 23 21 17 16 -4 103
-37 194 -73z m-6856 -140 c-3 -21 -29 -107 -56 -191 -58 -177 -163 -396 -238
-494 l-51 -67 -62 30 c-48 22 -76 29 -122 29 -109 -1 -181 -43 -245 -141 l-38
-58 -6 52 c-3 29 -9 133 -12 232 l-7 181 154 100 c172 113 265 167 419 244
112 57 250 119 263 120 4 0 5 -17 1 -37z m-1100 0 c-4 -15 -50 -76 -103 -136
-111 -126 -126 -148 -118 -171 12 -30 42 -16 91 43 27 33 63 74 81 91 l32 31
6 -85 c4 -46 9 -91 12 -99 9 -21 -66 -109 -126 -149 -96 -62 -138 -73 -289
-73 -74 0 -147 3 -163 8 -31 9 -31 8 9 137 68 217 225 360 453 411 113 25 123
25 115 -8z m4799 -219 c95 -32 186 -141 233 -280 23 -65 27 -96 27 -179 0
-173 -49 -301 -159 -412 -50 -50 -71 -65 -119 -78 -228 -67 -435 155 -435 465
0 144 45 278 126 377 86 105 212 146 327 107z m254 -45 c63 -39 135 -162 163
-279 17 -70 18 -209 1 -280 -20 -82 -75 -191 -126 -248 -41 -45 -113 -92 -143
-92 -6 0 12 30 40 68 93 122 138 258 138 415 0 150 -56 310 -143 404 l-42 46
40 -7 c22 -4 54 -17 72 -27z m282 -44 c142 -16 192 -36 247 -97 79 -88 117
-240 96 -389 -21 -144 -85 -245 -185 -293 -43 -20 -73 -25 -177 -31 -69 -3
-138 -8 -153 -11 -28 -6 -28 -6 23 71 27 43 62 114 77 159 24 72 27 96 28 216
0 153 -19 233 -81 335 -38 64 -49 61 125 40z m509 -151 c179 -21 206 -35 242
-131 23 -61 27 -182 9 -248 -15 -52 -74 -110 -124 -123 -41 -10 -275 -27 -275
-19 0 2 10 30 22 63 19 51 22 79 22 204 0 124 -4 154 -22 204 -12 33 -22 61
-22 63 0 4 -4 5 148 -13z m-2235 -17 c148 -63 188 -244 95 -430 -42 -84 -120
-157 -182 -169 -17 -3 -18 6 -17 122 2 99 -10 268 -31 469 -2 18 7 21 52 21
28 0 65 -6 83 -13z m2760 -58 c119 -31 172 -191 103 -315 -32 -59 -69 -72
-217 -76 l-126 -3 21 45 c16 36 20 66 21 155 0 99 -3 115 -26 163 l-27 54 107
-7 c58 -4 123 -11 144 -16z m298 -105 c49 -47 47 -161 -4 -212 -33 -32 -135
-47 -123 -17 27 73 33 194 10 249 -7 18 -4 19 41 13 33 -5 58 -16 76 -33z
m2455 -232 c42 -90 22 -204 -47 -267 -43 -39 -95 -65 -128 -65 -18 0 -18 4 9
58 16 31 41 107 55 167 14 61 30 125 36 142 10 31 11 32 34 17 13 -8 31 -32
41 -52z m326 -32 c219 -67 360 -279 345 -515 -3 -45 -22 -141 -43 -220 -65
-241 -50 -364 53 -441 l42 -32 -61 -27 c-50 -23 -76 -28 -139 -28 -69 0 -87 5
-152 36 -41 19 -94 52 -117 73 -51 46 -116 142 -132 196 -15 52 -38 72 -63 55
-17 -13 -17 -16 -1 -64 39 -116 128 -229 226 -286 l55 -32 -69 -3 c-152 -7
-312 91 -384 233 -59 119 -67 251 -27 489 14 83 25 165 25 183 0 29 5 35 49
57 52 27 94 70 119 123 9 18 19 33 23 33 4 0 29 -20 56 -44 54 -49 105 -134
124 -209 13 -53 32 -68 56 -44 13 13 14 22 4 62 -28 112 -115 236 -193 276
-33 17 -38 24 -38 53 0 18 -3 48 -6 65 l-6 31 95 0 c66 0 114 -6 159 -20z
m-9192 -119 c0 -28 4 -52 9 -55 5 -3 11 -19 13 -36 4 -27 -1 -33 -53 -65 -118
-72 -209 -204 -248 -357 -19 -75 -15 -108 14 -108 19 0 23 8 45 94 24 96 57
159 115 224 45 50 124 113 142 112 4 -1 25 -28 45 -60 21 -33 57 -74 81 -91
43 -30 45 -33 51 -98 12 -124 -24 -291 -92 -426 -102 -204 -237 -336 -407
-400 l-68 -26 33 38 c65 74 88 165 44 171 -17 2 -24 -6 -38 -42 -23 -61 -98
-141 -159 -173 -30 -15 -75 -27 -111 -30 l-61 -6 22 24 c67 75 91 181 68 307
-44 243 -47 268 -42 368 10 189 84 350 227 495 47 47 108 99 135 115 59 34
169 73 208 74 26 0 27 -2 27 -49z m5549 -43 c-7 -13 -37 -49 -68 -81 l-55 -58
13 -37 c19 -53 141 -310 168 -354 13 -21 29 -38 37 -38 17 0 -27 -167 -80
-303 -34 -88 -96 -211 -112 -221 -14 -8 -165 90 -231 150 -106 96 -174 217
-208 368 -23 103 -23 313 1 392 l18 62 81 7 c102 9 173 35 229 85 46 40 65 45
166 48 52 2 52 2 41 -20z m85 -11 c-9 -26 27 -172 61 -242 47 -97 116 -179
215 -254 55 -42 76 -62 60 -59 -14 3 -89 18 -167 34 l-142 29 -66 137 c-36 76
-73 154 -81 174 l-15 36 43 46 c24 26 53 62 63 80 19 31 39 45 29 19z m2565
-317 c31 -16 130 -28 172 -20 39 7 40 7 22 -12 -55 -62 -233 -164 -333 -191
-118 -33 -117 -34 -40 39 39 37 89 96 112 131 22 34 43 63 45 63 2 0 12 -4 22
-10z m-7579 -72 c18 -29 46 -70 62 -90 16 -21 26 -38 20 -38 -15 0 -135 80
-170 113 l-33 32 38 17 c21 9 41 17 45 17 3 1 21 -23 38 -51z m3099 -123 c46
-23 81 -72 81 -112 0 -33 -12 -48 -122 -160 -67 -67 -124 -123 -127 -122 -4 0
-23 22 -43 49 -21 27 -56 60 -78 72 -22 13 -40 26 -40 30 0 9 161 188 204 226
41 36 79 41 125 17z m2124 -79 c59 -13 111 -26 114 -29 11 -11 -28 -202 -62
-303 -35 -105 -98 -241 -132 -282 l-18 -23 -122 51 -122 52 30 51 c68 118 143
312 170 445 7 34 18 62 24 62 5 0 59 -11 118 -24z m360 -78 l94 -32 -45 -65
c-57 -84 -149 -275 -196 -411 -20 -58 -38 -110 -41 -117 -3 -8 -31 -5 -102 14
-54 14 -100 27 -102 29 -2 2 3 12 12 22 26 28 112 218 142 312 14 47 34 132
43 189 l17 103 42 -6 c23 -3 85 -20 136 -38z m246 -80 c48 -10 55 -16 67 -47
42 -108 88 -160 173 -199 114 -52 346 -38 488 29 75 36 150 93 182 141 22 32
33 37 120 58 l96 22 61 -25 c72 -31 173 -88 211 -121 l26 -23 -69 -33 c-280
-132 -661 -178 -1079 -131 -153 18 -500 83 -513 96 -8 8 32 87 90 177 43 67
54 79 72 74 12 -3 45 -11 75 -18z m486 -64 c116 -3 245 -2 288 3 42 5 77 7 77
4 0 -12 -107 -84 -155 -106 -84 -38 -196 -58 -295 -53 -122 6 -191 40 -237
118 -18 30 -33 57 -33 60 0 4 33 0 73 -7 39 -8 167 -16 282 -19z m-3580 2 c18
-8 54 -33 79 -56 123 -113 140 -312 41 -461 -31 -46 -35 -57 -30 -93 15 -97
-88 -300 -191 -379 -51 -39 -153 -77 -208 -77 -17 0 -58 7 -91 15 -62 17 -179
74 -178 88 1 5 86 94 189 198 186 189 187 190 216 178 24 -10 32 -9 45 4 14
14 13 18 -11 42 -18 18 -26 36 -26 63 -1 77 -58 156 -135 183 -57 21 -66 98
-13 118 29 11 59 0 120 -44 51 -37 78 -37 78 0 0 17 -16 34 -61 64 -34 23 -70
41 -80 41 -22 0 -23 1 -8 34 7 14 25 30 41 35 38 13 69 -2 121 -59 41 -44 70
-49 75 -14 2 14 -14 40 -48 78 l-52 56 46 0 c26 0 62 -6 81 -14z m-635 -103
c188 -104 228 -132 233 -165 5 -31 -3 -41 -141 -180 -81 -82 -149 -148 -152
-148 -3 0 -13 48 -23 108 -9 59 -31 160 -47 224 -25 99 -41 148 -87 256 -6 14
116 -39 217 -95z m-1533 86 c15 -6 60 -19 98 -28 l70 -17 38 -65 c57 -99 87
-232 87 -384 0 -67 -3 -125 -7 -128 -4 -4 -16 23 -27 59 -24 75 -46 98 -71 73
-14 -13 -13 -22 10 -89 14 -40 25 -76 25 -80 0 -4 -44 -14 -97 -24 -191 -33
-335 -107 -464 -240 l-86 -88 -15 38 c-34 87 -43 150 -43 304 0 116 4 171 17
218 55 196 200 370 368 439 65 26 61 26 97 12z m1279 -65 c13 -31 37 -102 53
-157 31 -110 84 -389 79 -411 -2 -8 -49 -61 -105 -119 l-101 -106 -48 15 c-96
29 -219 13 -332 -42 -53 -26 -59 -27 -111 -15 -111 24 -216 41 -296 47 l-82 7
-10 66 c-8 52 -7 73 4 100 52 124 25 407 -53 565 -14 27 -23 50 -21 52 2 2 25
1 51 -2 41 -6 49 -11 66 -43 23 -45 94 -113 149 -140 51 -27 152 -51 213 -51
l47 0 10 -52 c6 -29 15 -95 20 -145 11 -100 15 -113 36 -113 28 0 34 34 25
129 -6 51 -12 103 -15 117 -3 13 -7 35 -10 48 -4 20 0 25 23 31 46 11 125 55
160 88 37 35 92 123 92 148 0 16 52 35 103 38 25 1 31 -5 53 -55z m-235 -12
c-24 -47 -88 -106 -138 -127 -95 -40 -253 -35 -344 10 -49 25 -129 90 -129
106 0 3 105 9 233 13 127 3 266 12 307 20 41 7 78 14 83 15 4 0 -1 -16 -12
-37z m5732 -95 c19 -24 58 -79 86 -123 l51 -79 -77 -37 c-135 -64 -466 -167
-498 -154 -7 2 -16 21 -19 41 -8 41 -30 55 -53 33 -12 -13 -13 -22 -3 -58 6
-23 9 -44 6 -47 -31 -32 -661 -27 -873 6 -133 21 -277 51 -368 76 -27 8 -69
19 -92 25 l-42 10 15 51 c28 93 76 209 86 209 6 0 88 -15 182 -34 604 -122
1104 -95 1464 80 48 23 90 43 93 43 4 1 23 -18 42 -42z m-4884 -190 c27 -25
51 -76 51 -108 0 -15 -86 -108 -282 -305 -155 -156 -286 -284 -290 -284 -4 0
-8 7 -8 15 0 26 -30 78 -68 118 l-36 37 279 280 c305 306 296 300 354 247z
m5084 -135 c27 -59 77 -188 77 -197 0 -12 -113 -77 -175 -100 -112 -42 -457
-116 -472 -102 -4 5 -52 234 -53 253 0 5 44 21 98 33 115 28 285 86 397 135
44 19 85 35 91 35 6 1 23 -25 37 -57z m-1986 -71 c143 -39 347 -78 502 -97
146 -17 579 -20 710 -4 47 5 86 8 88 6 9 -9 56 -277 49 -283 -11 -12 -123 -21
-326 -28 -280 -10 -592 13 -872 64 -106 20 -330 70 -336 75 -6 6 66 296 73
296 3 0 53 -13 112 -29z m-4729 -216 c10 -51 10 -57 -9 -76 -36 -36 -20 -44
107 -51 140 -9 273 -31 352 -57 l57 -19 60 33 c169 95 359 81 439 -32 33 -48
45 -118 26 -164 l-13 -31 -20 38 c-24 48 -54 82 -87 99 -60 30 -68 -19 -10
-71 28 -25 45 -52 57 -91 17 -53 17 -56 -2 -91 -23 -42 -43 -51 -51 -25 -17
55 -40 95 -69 123 -35 34 -61 36 -79 7 -9 -14 -5 -22 22 -43 41 -32 60 -70 63
-122 3 -45 -13 -72 -43 -72 -11 0 -48 27 -82 60 -35 33 -68 60 -74 60 -6 0
-33 -14 -61 -31 -63 -39 -138 -50 -176 -25 -23 15 -29 15 -88 -1 -73 -20 -247
-22 -347 -4 -256 47 -421 165 -503 363 l-21 51 49 44 c102 90 328 179 461 182
30 1 32 -1 42 -54z m6738 -107 c28 -107 26 -284 -4 -359 -44 -110 -130 -176
-282 -215 -79 -21 -244 -23 -316 -5 -44 11 -56 10 -93 -5 -48 -19 -107 -23
-168 -11 -41 8 -42 8 -69 -35 -40 -65 -65 -88 -94 -88 -58 0 -63 35 -19 131
33 72 33 99 -1 99 -25 0 -79 -103 -89 -169 -7 -52 -30 -64 -62 -35 -29 26 -24
86 13 166 28 61 30 71 16 84 -8 8 -21 12 -30 9 -17 -7 -78 -131 -78 -158 0
-25 -37 -21 -51 4 -43 80 103 262 244 304 61 18 140 19 219 3 47 -10 65 -10
91 1 135 56 261 92 338 97 121 8 131 11 127 37 -3 21 -8 22 -100 25 -75 2 -98
6 -98 17 0 7 -2 20 -5 28 -5 11 17 18 97 32 134 23 260 57 328 88 30 14 58 26
61 26 4 1 15 -32 25 -71z m-2066 -38 c328 -79 556 -103 950 -104 276 0 403 7
519 30 23 5 31 3 31 -8 0 -18 -255 -112 -279 -103 -75 30 -220 20 -306 -20
-64 -31 -153 -108 -197 -173 l-31 -45 -117 6 c-64 4 -182 18 -262 31 -145 25
-477 102 -490 115 -3 3 2 62 13 131 22 148 27 170 37 170 4 0 63 -14 132 -30z
m-6973 -21 l67 -34 52 -205 c152 -599 409 -1199 652 -1522 l53 -71 -123 -126
c-68 -69 -126 -126 -131 -126 -13 0 -154 175 -229 284 -226 330 -410 714 -567
1187 -73 220 -131 440 -131 500 0 109 69 157 213 151 64 -3 89 -9 144 -38z
m348 -83 c469 -98 1181 -215 1470 -242 47 -4 82 -14 105 -29 189 -120 466
-173 685 -131 39 8 71 13 71 12 1 0 -92 -97 -207 -215 l-209 -214 -127 12
c-542 50 -1102 132 -1728 253 l-119 24 -24 74 c-29 92 -107 399 -117 459 -6
39 -5 42 11 38 11 -3 96 -22 189 -41z m1442 -129 c19 -27 33 -50 31 -52 -2 -1
-36 2 -75 8 -84 11 -82 8 -57 118 l16 70 25 -48 c14 -26 41 -70 60 -96z m1747
-37 c10 -69 20 -133 23 -144 4 -16 1 -17 -33 -12 -22 3 -78 8 -125 12 l-85 6
10 50 c7 35 21 61 43 83 18 18 33 40 33 48 0 9 15 25 33 36 18 11 42 30 52 41
10 11 22 17 25 13 4 -5 15 -64 24 -133z m3412 -110 c89 -22 210 -48 270 -58
l109 -19 -130 -6 c-72 -4 -199 -7 -284 -7 l-153 0 6 31 c3 17 6 47 6 65 0 19
4 34 8 34 4 0 80 -18 168 -40z m3084 20 c11 -11 20 -24 20 -28 0 -24 -25 -145
-61 -292 l-40 -165 -162 -18 c-752 -84 -1110 -117 -1587 -147 -927 -59 -1556
-74 -2700 -67 -1118 8 -1904 38 -2615 102 -88 8 -171 15 -185 15 -21 0 8 33
174 199 182 182 202 199 240 204 43 6 86 43 86 74 0 18 40 17 450 -11 564 -39
1531 -61 2310 -52 635 8 1382 23 1558 32 l122 6 0 -26 c0 -56 46 -106 97 -106
11 0 26 -15 37 -34 22 -42 63 -61 115 -52 26 4 49 1 70 -10 60 -30 133 3 181
80 20 34 21 34 79 29 40 -4 74 0 109 11 44 15 61 16 133 5 211 -31 458 34 557
146 34 39 41 42 102 48 36 3 209 20 385 36 404 39 390 37 453 39 40 2 57 -3
72 -18z m-7485 -641 c-691 -692 -1135 -1111 -1192 -1125 -29 -8 -63 20 -63 51
0 40 -13 26 659 736 91 96 305 318 477 495 l313 321 58 12 c32 6 76 22 98 36
l40 24 40 -40 40 -39 -470 -471z m-2034 262 c247 -50 556 -102 824 -141 243
-34 734 -90 797 -90 24 0 48 -4 55 -8 7 -4 -38 -58 -125 -151 l-137 -143 -65
17 c-91 24 -218 22 -319 -5 -83 -23 -158 -62 -247 -131 l-52 -40 -178 31
c-402 68 -498 88 -511 105 -21 29 -138 303 -186 435 -25 69 -49 133 -52 143
-4 9 -5 17 -3 17 2 0 92 -18 199 -39z m9419 -179 c0 -33 -166 -521 -183 -538
-7 -7 -260 -51 -452 -78 -368 -52 -902 -104 -1460 -141 -604 -41 -1408 -58
-2360 -52 -1249 8 -2025 49 -3116 163 l-156 17 -15 42 -16 42 227 226 226 225
140 -13 c787 -76 1821 -117 3010 -118 1425 -1 2576 57 3690 183 193 22 357 42
365 44 29 7 100 6 100 -2z m-8074 -398 c19 -8 -8 -39 -274 -319 -162 -170
-308 -330 -324 -354 -41 -65 -39 -122 6 -167 50 -50 95 -48 172 9 70 52 228
195 494 449 l195 186 13 -42 c7 -22 15 -77 18 -121 15 -191 -61 -324 -366
-650 -68 -71 -191 -206 -274 -299 -163 -183 -250 -262 -336 -304 -103 -51
-231 -30 -345 56 -74 55 -307 270 -335 309 -62 85 -62 178 1 279 37 58 768
795 854 861 117 89 229 124 380 119 55 -2 110 -7 121 -12z m-996 -113 c124
-22 249 -43 278 -48 l52 -8 -164 -164 -164 -164 -84 129 c-75 114 -178 288
-178 301 0 2 8 2 18 -1 9 -3 118 -23 242 -45z m8851 -125 c-22 -56 -158 -319
-218 -417 -73 -122 -56 -112 -235 -148 -539 -111 -1500 -195 -2638 -231 -406
-13 -1571 -13 -1945 0 -736 25 -1317 63 -2000 130 -294 29 -576 59 -612 65
l-32 6 54 70 c103 133 140 239 133 386 l-3 85 40 -5 c23 -4 155 -17 295 -31
1068 -107 1946 -146 3240 -146 911 0 1493 17 2220 65 509 34 1195 107 1495
159 105 18 196 34 202 35 9 1 10 -6 4 -23z m-347 -618 c-107 -185 -307 -400
-479 -516 -125 -84 -373 -171 -552 -193 -127 -15 -217 -1 -458 71 -287 86
-361 101 -537 107 -227 8 -309 -9 -713 -147 -252 -86 -338 -104 -495 -103
-171 1 -234 14 -531 113 -293 97 -368 113 -524 113 -133 0 -237 -17 -397 -64
-457 -136 -496 -143 -678 -136 -160 6 -317 47 -525 137 -81 35 -211 69 -303
80 -120 13 -250 -2 -460 -56 -289 -75 -476 -71 -733 16 -136 45 -353 145 -347
159 8 24 353 381 367 381 9 0 93 -9 186 -20 392 -46 1087 -108 1510 -135 698
-43 1175 -57 1970 -57 1139 0 2166 50 2990 147 216 26 528 75 625 99 73 18 93
19 84 4z"/>
<path d="M5147 8679 c-170 -40 -310 -191 -324 -349 -5 -57 -8 -61 -27 -56 -12
3 -24 6 -29 6 -4 0 -14 18 -23 40 -34 85 -115 115 -185 67 -43 -29 -68 -94
-53 -135 9 -23 8 -33 -8 -51 -12 -16 -18 -39 -18 -71 0 -115 134 -171 212 -88
l28 30 77 -17 c64 -14 83 -23 105 -49 15 -17 27 -34 28 -38 0 -4 -23 -23 -51
-42 -50 -33 -52 -34 -87 -19 -49 20 -98 9 -139 -32 -27 -27 -33 -41 -33 -75 0
-55 26 -107 61 -126 16 -8 32 -26 35 -39 10 -40 59 -75 105 -75 78 0 129 49
129 123 0 31 7 40 68 84 l69 50 19 -41 c33 -71 68 -76 289 -40 163 27 190 42
200 108 l7 42 66 -34 c59 -29 67 -37 70 -65 7 -63 75 -107 142 -92 42 9 90 60
90 95 0 18 8 33 25 44 61 40 71 133 19 187 -49 51 -132 62 -174 24 -16 -14
-23 -13 -77 10 l-60 27 18 49 c11 27 19 63 19 79 0 27 6 33 46 51 45 19 48 19
66 2 15 -13 37 -18 80 -18 55 0 62 3 89 33 45 51 37 141 -16 176 -14 9 -25 29
-28 53 -9 55 -66 103 -122 103 -62 0 -115 -57 -115 -123 0 -15 -8 -28 -24 -35
-21 -9 -25 -7 -38 21 -42 88 -153 174 -262 203 -57 15 -210 17 -269 3z m298
-83 c87 -40 140 -87 174 -159 91 -185 73 -323 -48 -379 l-50 -22 6 -102 c3
-55 2 -103 -3 -106 -5 -3 -24 -9 -41 -13 -32 -6 -33 -6 -33 27 0 44 -21 74
-45 64 -14 -5 -17 -15 -13 -55 4 -44 3 -50 -16 -55 -51 -14 -64 -8 -71 33 -7
45 -27 66 -51 57 -14 -5 -15 -15 -10 -57 l7 -50 -43 3 -43 3 -21 85 c-12 46
-25 85 -30 87 -5 1 -28 7 -52 13 -79 20 -139 93 -168 205 -45 167 28 328 188
411 99 51 263 56 363 10z m458 -75 c15 -12 17 -24 12 -57 -6 -41 -5 -42 32
-60 47 -23 57 -63 21 -88 -30 -22 -61 -20 -83 4 -27 30 -48 32 -99 9 -26 -11
-49 -19 -51 -17 -2 1 -6 19 -10 39 -6 34 -5 37 22 44 41 10 53 24 53 61 0 83
48 113 103 65z m-1246 -186 c11 -8 24 -27 28 -42 13 -54 32 -72 84 -79 48 -6
49 -7 61 -51 6 -25 9 -47 8 -49 -2 -1 -37 5 -77 14 -80 17 -81 17 -116 -43
-14 -23 -60 -23 -85 0 -29 26 -25 62 10 93 33 29 38 53 15 72 -23 19 -19 66 7
84 28 20 38 20 65 1z m1164 -375 c9 0 24 9 34 20 42 47 146 4 131 -54 -5 -19
-18 -32 -41 -42 -32 -13 -35 -18 -35 -57 0 -51 -13 -67 -55 -67 -41 0 -55 16
-55 62 l0 37 -95 46 c-52 25 -99 54 -105 66 -7 11 -10 22 -8 23 2 1 18 11 36
23 l33 20 72 -38 c40 -21 79 -39 88 -39z m-778 -48 c15 -2 27 -7 27 -11 0 -12
-62 -65 -133 -115 -72 -50 -70 -46 -50 -108 7 -22 -31 -58 -61 -58 -31 0 -49
23 -50 63 -1 27 -6 34 -35 43 -60 20 -78 67 -39 104 25 23 48 25 95 8 31 -11
39 -10 87 15 30 16 64 39 77 53 14 15 29 22 39 18 8 -4 27 -9 43 -12z"/>
<path d="M5397 8339 c-11 -6 -25 -26 -33 -45 -29 -70 20 -154 91 -154 89 0
127 119 60 186 -26 26 -84 32 -118 13z"/>
<path d="M5068 8283 c-34 -36 -43 -73 -28 -117 37 -114 200 -95 200 24 0 47
-21 95 -49 110 -38 20 -95 12 -123 -17z"/>
<path d="M5293 8123 c-3 -10 -13 -26 -21 -35 -27 -31 -9 -46 55 -44 52 1 58 3
61 24 2 12 -1 22 -7 22 -6 0 -21 11 -33 25 -25 29 -46 32 -55 8z"/>
<path d="M10727 8629 c-104 -24 -217 -113 -277 -218 -19 -33 -39 -61 -44 -61
-5 0 -6 19 -3 42 7 50 -11 98 -44 122 -55 38 -154 3 -173 -61 -5 -19 -17 -35
-30 -39 -60 -18 -97 -98 -73 -156 28 -66 92 -93 166 -68 34 11 40 10 83 -17
35 -21 51 -39 65 -73 10 -25 19 -48 21 -52 2 -4 -25 -16 -60 -26 -61 -19 -64
-19 -86 -1 -53 41 -131 32 -177 -22 -33 -40 -33 -94 0 -143 14 -20 25 -48 25
-62 0 -15 12 -38 29 -55 24 -23 38 -29 73 -29 51 0 101 27 120 66 21 43 138
73 138 36 0 -11 8 -26 18 -35 26 -23 253 -86 337 -94 70 -6 71 -5 97 25 14 17
28 37 30 43 2 6 27 -12 55 -42 50 -52 51 -55 46 -100 -10 -83 41 -139 125
-139 48 0 86 28 101 73 6 18 24 39 41 49 89 51 87 162 -3 219 -24 15 -43 19
-78 15 -42 -4 -49 -2 -75 25 l-28 29 34 34 c30 29 44 35 98 40 58 5 63 4 71
-17 30 -79 154 -88 205 -15 17 24 21 104 7 127 -6 9 -2 25 11 47 52 89 -38
202 -142 179 -30 -7 -90 -66 -90 -89 0 -14 -21 -26 -43 -26 -8 0 -12 27 -13
84 0 74 -4 92 -32 149 -87 175 -326 283 -525 236z m166 -59 c85 -14 160 -52
226 -115 105 -100 129 -209 82 -367 -38 -124 -97 -178 -196 -178 l-46 0 -29
-67 c-43 -97 -43 -98 -84 -101 -41 -4 -42 1 -20 53 19 45 13 65 -20 65 -20 0
-27 -8 -41 -51 -17 -49 -18 -50 -48 -43 -47 10 -47 10 -31 64 17 57 13 70 -21
70 -19 0 -25 -8 -36 -50 -14 -55 -13 -55 -58 -39 -37 13 -38 24 -16 131 10 46
12 74 6 76 -59 20 -121 106 -121 168 0 40 33 135 67 193 71 121 170 183 318
200 6 0 36 -3 68 -9z m-571 -111 c19 -10 20 -17 14 -75 -6 -61 -6 -64 21 -81
16 -9 30 -18 31 -19 2 -2 1 -17 -3 -34 l-7 -31 -26 17 c-66 43 -72 44 -113 21
-36 -20 -41 -21 -66 -7 -36 20 -42 61 -14 89 11 11 27 18 35 15 8 -3 24 0 36
6 17 9 20 17 15 41 -5 22 -2 36 11 50 20 22 36 24 66 8z m1170 -251 c41 -33
40 -86 -2 -115 -25 -18 -25 -38 0 -63 28 -28 26 -66 -5 -86 -35 -23 -73 -6
-81 36 -9 45 -23 51 -89 40 -32 -5 -60 -8 -63 -6 -2 2 2 22 9 45 11 36 16 41
43 41 58 0 75 11 96 56 11 25 29 48 42 54 31 12 32 12 50 -2z m-1000 -243 c-8
-62 -8 -61 -104 -86 -87 -22 -93 -26 -96 -51 -4 -31 -35 -58 -68 -58 -31 0
-44 21 -38 62 6 32 3 37 -22 50 -35 16 -43 52 -18 79 23 25 69 24 105 -2 32
-23 60 -20 154 15 55 21 91 17 87 -9z m747 -209 c42 5 55 3 71 -11 43 -39 13
-105 -47 -105 -38 0 -53 -22 -35 -50 8 -13 7 -23 -4 -39 -19 -27 -58 -27 -84
-1 -23 23 -25 55 -6 90 13 23 11 28 -66 109 -43 46 -76 87 -71 92 4 4 24 9 43
11 31 3 42 -3 91 -50 l56 -53 52 7z"/>
<path d="M10624 8301 c-87 -53 -57 -191 41 -191 99 0 140 151 54 195 -37 20
-58 19 -95 -4z"/>
<path d="M10908 8211 c-30 -27 -33 -35 -33 -86 0 -50 3 -60 28 -81 42 -36 90
-33 133 10 29 29 34 41 34 81 0 95 -92 138 -162 76z"/>
<path d="M10731 8061 c-35 -27 -24 -52 31 -66 33 -8 50 -9 58 -1 14 14 12 36
-4 42 -8 3 -16 14 -19 25 -6 24 -35 24 -66 0z"/>
<path d="M9643 6979 c-58 -7 -113 -37 -137 -74 -21 -31 -20 -42 3 -54 15 -8
25 -4 50 20 17 16 43 34 57 39 33 13 110 13 134 0 24 -13 50 -3 50 20 0 40
-67 61 -157 49z"/>
<path d="M10904 6840 c-55 -22 -30 -76 28 -60 61 18 170 -21 194 -69 17 -34
29 -42 47 -35 31 12 21 60 -22 103 -58 58 -180 88 -247 61z"/>
<path d="M10843 6490 c-58 -35 -86 -90 -91 -180 -4 -71 -2 -83 21 -123 42 -71
124 -97 188 -60 41 25 80 84 94 146 l11 52 61 18 c66 20 79 34 59 63 -12 16
-18 17 -56 5 -23 -7 -48 -15 -55 -18 -9 -3 -22 11 -35 37 -38 75 -128 103
-197 60z"/>
<path d="M10207 6295 c-76 -27 -107 -81 -93 -160 9 -47 55 -99 79 -90 22 9 22
27 -3 67 -37 62 -21 105 49 129 28 10 35 9 55 -10 20 -18 25 -19 41 -7 18 13
18 16 5 41 -24 45 -67 54 -133 30z"/>
<path d="M9994 5966 c-43 -32 27 -236 111 -319 107 -107 276 -101 379 13 50
55 75 113 85 197 15 115 -16 144 -86 82 -52 -45 -93 -62 -164 -67 -86 -6 -153
11 -220 54 -80 53 -84 55 -105 40z m476 -212 c0 -9 -19 -36 -43 -59 -41 -42
-94 -65 -148 -65 -30 0 -120 43 -143 69 -16 18 -15 19 29 25 25 4 65 16 88 26
57 26 217 29 217 4z"/>
<path d="M6175 6951 c-53 -14 -76 -31 -73 -54 3 -23 1 -23 111 -11 55 7 94 -6
128 -42 42 -45 86 -20 58 33 -29 54 -148 94 -224 74z"/>
<path d="M4858 6616 c-50 -14 -111 -55 -128 -87 -30 -56 21 -95 52 -40 25 45
89 73 157 70 31 -2 62 0 69 4 22 15 12 38 -23 53 -41 17 -64 17 -127 0z"/>
<path d="M6205 6576 c-64 -29 -95 -85 -95 -169 0 -77 18 -127 59 -169 63 -62
140 -63 197 -3 78 84 64 260 -27 327 -34 25 -96 32 -134 14z"/>
<path d="M4930 6393 c-68 -26 -109 -95 -110 -186 0 -155 127 -255 238 -187 71
43 97 196 50 290 -33 65 -119 105 -178 83z"/>
<path d="M5683 6220 c-31 -12 -48 -47 -32 -66 15 -18 33 -18 50 2 15 18 79 14
104 -6 23 -19 18 -73 -10 -114 -29 -42 -30 -49 -11 -65 18 -15 64 21 82 65 19
45 18 114 -2 143 -31 43 -123 64 -181 41z"/>
<path d="M5940 5840 c-20 -47 -86 -109 -148 -137 -138 -64 -341 -9 -388 104
-8 18 -18 33 -23 33 -23 0 -41 -14 -41 -32 0 -53 68 -124 160 -167 48 -22 68
-26 155 -26 88 0 107 3 157 27 78 36 122 71 158 126 36 54 37 95 4 100 -16 2
-25 -5 -34 -28z"/>
<path d="M7933 6736 c-95 -44 -161 -166 -170 -312 -12 -181 82 -339 215 -360
149 -24 283 168 270 384 -10 152 -88 274 -190 300 -62 16 -65 16 -125 -12z
m133 -65 c74 -45 114 -134 115 -251 1 -165 -80 -290 -187 -290 -32 0 -45 8
-85 49 -62 64 -82 125 -78 234 5 105 48 202 111 248 48 34 81 36 124 10z"/>
<path d="M7862 8539 l-62 -42 -73 22 c-88 26 -99 26 -120 3 -22 -24 -22 -34 5
-116 l22 -68 -20 -37 c-12 -20 -33 -57 -48 -82 -26 -46 -26 -47 -7 -70 17 -21
29 -25 112 -29 l93 -5 44 -62 c36 -53 48 -63 73 -63 34 0 49 21 74 100 21 68
26 73 100 99 83 31 105 47 105 76 0 19 -12 34 -47 58 -101 70 -103 72 -103
140 0 124 -43 145 -148 76z m105 -191 c9 -10 36 -31 60 -46 23 -15 43 -30 43
-33 0 -3 -29 -14 -65 -24 -35 -9 -69 -23 -74 -29 -6 -7 -20 -43 -31 -79 -12
-37 -23 -67 -25 -67 -2 0 -16 20 -31 45 -38 66 -56 75 -147 75 l-78 0 41 59
c45 68 48 89 20 163 -11 28 -18 53 -17 54 1 2 33 -6 70 -18 76 -23 95 -19 164
32 l38 29 7 -71 c5 -44 14 -78 25 -90z"/>
<path d="M13455 7766 c-157 -68 -117 -335 82 -546 111 -118 111 -118 211 -65
160 86 289 201 328 293 19 46 18 126 -3 169 -46 99 -202 123 -294 45 -30 -25
-32 -25 -42 -6 -20 39 -94 100 -134 112 -52 15 -110 15 -148 -2z m140 -65 c50
-23 70 -45 90 -101 14 -41 29 -59 47 -60 5 0 27 19 50 41 77 75 145 86 207 33
106 -89 -4 -253 -270 -403 l-56 -31 -77 80 c-54 59 -88 106 -118 167 -39 78
-43 93 -43 161 0 71 1 75 33 103 38 34 78 37 137 10z"/>
<path d="M1652 7393 c-20 -8 -39 -53 -66 -158 -13 -53 -28 -101 -33 -105 -4
-4 -57 -19 -118 -33 -87 -21 -115 -32 -132 -52 -44 -50 -31 -74 93 -161 79
-56 94 -72 90 -89 -4 -11 -9 -70 -13 -131 l-6 -112 27 -17 c26 -17 28 -17 69
1 23 11 75 43 116 72 l74 53 101 -35 c130 -45 152 -49 179 -35 47 25 48 48 6
191 -28 94 -30 110 -18 127 8 10 42 56 76 101 113 147 104 163 -99 170 l-141
5 -49 80 c-70 115 -109 147 -156 128z m116 -188 l49 -80 129 -3 c71 -1 132 -6
137 -11 5 -5 -26 -50 -67 -102 -42 -52 -76 -103 -76 -114 0 -11 14 -63 30
-115 29 -93 36 -130 24 -130 -16 0 -125 35 -176 56 -32 13 -63 24 -70 24 -8 0
-57 -32 -111 -71 -54 -39 -100 -69 -103 -67 -2 3 1 60 7 126 14 142 19 131
-92 208 -42 30 -82 60 -88 68 -14 16 -8 19 147 54 53 13 88 27 97 38 7 11 23
56 34 100 11 45 25 94 31 110 11 27 11 27 30 8 10 -10 41 -55 68 -99z"/>
<path d="M13860 6060 l-62 -70 -92 0 c-77 0 -96 -3 -109 -18 -27 -30 -20 -57
32 -122 l49 -61 -29 -81 c-17 -45 -29 -95 -27 -111 5 -50 25 -54 134 -29 l97
22 56 -49 c79 -68 107 -84 130 -76 24 7 28 21 36 138 l7 87 46 27 c111 62 123
73 120 101 -3 23 -17 34 -100 77 l-97 50 -17 70 c-22 95 -36 115 -78 115 -29
0 -42 -9 -96 -70z m130 -148 c7 -15 36 -35 90 -59 l81 -36 -67 -37 c-36 -21
-70 -44 -75 -51 -5 -8 -9 -51 -9 -96 0 -46 -3 -83 -6 -83 -4 0 -33 25 -66 55
-67 63 -79 65 -181 36 -37 -11 -67 -18 -67 -16 0 3 14 39 31 82 17 43 28 86
25 98 -3 12 -24 42 -46 67 l-40 46 31 6 c18 3 58 6 89 6 l58 0 59 67 58 66 13
-64 c7 -35 17 -74 22 -87z"/>
<path d="M1856 5720 c-35 -11 -72 -45 -94 -85 -21 -40 -20 -148 1 -199 10 -22
16 -41 14 -43 -3 -2 -16 1 -31 7 -42 16 -143 12 -183 -6 -99 -48 -124 -189
-47 -274 41 -46 100 -70 172 -73 42 -2 51 -5 46 -17 -38 -88 -44 -161 -19
-210 33 -65 124 -104 208 -89 69 11 128 73 148 155 l11 42 44 -34 c142 -108
334 -41 334 116 0 67 -56 151 -123 186 l-28 15 41 30 c82 59 113 182 67 264
-57 103 -202 110 -303 13 l-31 -29 -6 50 c-16 136 -111 214 -221 181z m124
-97 c26 -33 38 -81 46 -175 10 -110 26 -110 108 -4 40 53 82 76 139 76 54 0
91 -27 103 -75 16 -62 -48 -167 -109 -179 -15 -3 -38 -8 -51 -11 -24 -5 -41
-30 -30 -46 3 -5 33 -23 67 -40 138 -69 184 -160 117 -228 -63 -63 -146 -51
-239 34 -32 30 -66 55 -75 55 -18 0 -36 -37 -36 -73 0 -42 -21 -98 -48 -129
-53 -58 -162 -46 -197 22 -23 45 -18 81 21 159 20 40 33 78 30 86 -4 12 -25
15 -90 15 -95 0 -129 9 -168 47 -35 34 -44 79 -25 126 31 74 121 88 226 34
102 -51 102 -51 94 -67 -4 -8 -9 -39 -11 -68 -4 -50 -2 -54 36 -92 35 -36 45
-40 88 -40 66 0 110 28 136 86 31 71 13 134 -49 175 -33 22 -97 24 -135 5 -27
-14 -28 -14 -54 32 -89 158 -89 270 -1 307 38 16 79 4 107 -32z m51 -364 c46
-24 40 -112 -9 -138 -84 -45 -151 52 -83 120 31 30 59 36 92 18z"/>
<path d="M962 1198 c-19 -19 -15 -32 21 -64 143 -133 389 -145 579 -27 l38 23
44 -34 c65 -49 162 -92 250 -110 145 -30 312 9 422 99 l42 35 85 -44 c124 -63
231 -80 349 -55 107 23 218 89 218 130 0 33 -24 31 -78 -5 -75 -50 -143 -70
-237 -70 -103 1 -177 23 -261 79 -37 25 -72 45 -78 45 -7 0 -31 -20 -55 -44
-67 -68 -163 -108 -275 -114 -142 -7 -255 30 -361 117 -27 23 -55 41 -62 41
-7 0 -31 -13 -55 -28 -95 -63 -143 -76 -268 -77 -110 0 -118 1 -175 31 -33 18
-71 44 -84 58 -27 29 -41 32 -59 14z"/>
<path d="M13348 1144 c-28 -26 -81 -61 -117 -78 -62 -29 -73 -31 -181 -31
-109 0 -118 2 -185 33 -38 18 -84 47 -102 64 -53 51 -99 11 -48 -42 67 -70
206 -120 336 -120 111 0 197 26 284 85 l65 45 60 -44 c105 -77 240 -113 362
-96 84 12 197 69 243 122 66 78 23 107 -53 36 -26 -24 -69 -55 -97 -68 -44
-22 -63 -25 -160 -25 -103 0 -114 2 -176 32 -36 18 -89 55 -118 83 -28 27 -54
50 -56 50 -2 0 -28 -21 -57 -46z"/>
<path d="M4881 874 c-170 -133 -400 -141 -524 -18 -39 39 -70 42 -75 8 -7 -49
124 -133 239 -154 113 -21 240 10 352 85 l65 43 22 -23 c11 -12 42 -34 68 -48
159 -86 345 -73 465 33 34 30 39 31 55 17 54 -48 175 -87 269 -87 111 0 253
62 253 111 0 31 -25 33 -67 5 -126 -82 -311 -68 -425 33 -20 17 -41 31 -47 31
-6 0 -29 -18 -52 -41 -23 -23 -66 -53 -98 -68 -47 -22 -69 -26 -141 -25 -101
1 -172 28 -243 93 -24 23 -50 41 -58 40 -8 0 -34 -16 -58 -35z"/>
<path d="M9705 854 c-49 -43 -144 -90 -215 -105 -105 -22 -219 5 -303 72 -39
31 -63 32 -74 4 -14 -37 96 -109 206 -135 121 -28 280 8 386 88 l50 38 62 -47
c84 -64 158 -91 265 -97 70 -3 100 0 157 17 89 27 196 104 196 141 0 38 -31
36 -77 -5 -97 -88 -250 -119 -370 -75 -70 25 -128 62 -172 109 -38 40 -61 39
-111 -5z"/>
</g>
</svg>
